HIERARCHY
ROOT Hips
{
  OFFSET 52.3395 84.3008 7.20305
  CHANNELS 6 Xposition Yposition Zposition Zrotation Xrotation Yrotation
  JOINT spine
  {
    OFFSET 0 5.95438 0.342407
    CHANNELS 3 Zrotation Xrotation Yrotation
    JOINT spine1
    {
      OFFSET 0 8.85602 0
      CHANNELS 3 Zrotation Xrotation Yrotation
      JOINT spine2
      {
        OFFSET 0 8.48567 0
        CHANNELS 3 Zrotation Xrotation Yrotation
        JOINT Neck
        {
          OFFSET 0 21.7863 1.0387
          CHANNELS 3 Zrotation Xrotation Yrotation
          JOINT Head
          {
            OFFSET 0 6.5822 0
            CHANNELS 3 Zrotation Xrotation Yrotation
            End Site
            {
              OFFSET 0 15.9326 -5.25436
            }
          }
        }
        JOINT RightShoulder
        {
          OFFSET -3.57307 9.16386 -0.497525
          CHANNELS 3 Zrotation Xrotation Yrotation
          JOINT RightArm
          {
            OFFSET 0 12.0192 0
            CHANNELS 3 Zrotation Xrotation Yrotation
            JOINT RightArmRoll
            {
              OFFSET 0 6.06755 0
              CHANNELS 3 Zrotation Xrotation Yrotation
              JOINT RightForeArm
              {
                OFFSET 0 17.6726 0
                CHANNELS 3 Zrotation Xrotation Yrotation
                JOINT RightForeArmRoll
                {
                  OFFSET 0 6.80873 0
                  CHANNELS 3 Zrotation Xrotation Yrotation
                  JOINT RightHand
                  {
                    OFFSET 0 13.6636 0
                    CHANNELS 3 Zrotation Xrotation Yrotation
                    End Site
                    {
                      OFFSET 0 0 0
                    }
                  }
                }
              }
            }
          }
        }
        JOINT LeftShoulder
        {
          OFFSET 3.57307 9.16386 -0.497525
          CHANNELS 3 Zrotation Xrotation Yrotation
          JOINT LeftArm
          {
            OFFSET 0 12.0192 0
            CHANNELS 3 Zrotation Xrotation Yrotation
            JOINT LeftArmRoll
            {
              OFFSET 0 6.06755 0
              CHANNELS 3 Zrotation Xrotation Yrotation
              JOINT LeftForeArm
              {
                OFFSET 0 17.6726 0
                CHANNELS 3 Zrotation Xrotation Yrotation
                JOINT LeftForeArmRoll
                {
                  OFFSET 0 6.80872 0
                  CHANNELS 3 Zrotation Xrotation Yrotation
                  JOINT LeftHand
                  {
                    OFFSET 0 13.6636 0
                    CHANNELS 3 Zrotation Xrotation Yrotation
                    End Site
                    {
                      OFFSET 0 0 0
                    }
                  }
                }
              }
            }
          }
        }
      }
    }
  }
  JOINT RightUpLeg
  {
    OFFSET -5.27774 -0.967797 -0.811858
    CHANNELS 3 Zrotation Xrotation Yrotation
    JOINT RightUpLegRoll
    {
      OFFSET 0 16.0214 0
      CHANNELS 3 Zrotation Xrotation Yrotation
      JOINT RightLeg
      {
        OFFSET 0 -19.8401 0
        CHANNELS 3 Zrotation Xrotation Yrotation
        JOINT RightLegRoll
        {
          OFFSET 0 19.905 0
          CHANNELS 3 Zrotation Xrotation Yrotation
          JOINT RightFoot
          {
            OFFSET 0 16.5675 0
            CHANNELS 3 Zrotation Xrotation Yrotation
            JOINT RightToeBase
            {
              OFFSET 0 13.8496 0
              CHANNELS 3 Zrotation Xrotation Yrotation
              End Site
              {
                OFFSET 0.00587034 6.70728 -0.773117
              }
            }
          }
        }
      }
    }
  }
  JOINT LeftUpLeg
  {
    OFFSET 5.27774 -0.967797 -0.811858
    CHANNELS 3 Zrotation Xrotation Yrotation
    JOINT LeftUpLegRoll
    {
      OFFSET 0 16.0215 0
      CHANNELS 3 Zrotation Xrotation Yrotation
      JOINT LeftLeg
      {
        OFFSET 0 19.84 0
        CHANNELS 3 Zrotation Xrotation Yrotation
        JOINT LeftLegRoll
        {
          OFFSET 0 20.089 0
          CHANNELS 3 Zrotation Xrotation Yrotation
          JOINT LeftFoot
          {
            OFFSET 0 16.3835 0
            CHANNELS 3 Zrotation Xrotation Yrotation
            JOINT LeftToeBase
            {
              OFFSET 0 13.8496 0
              CHANNELS 3 Zrotation Xrotation Yrotation
              End Site
              {
                OFFSET -0.0263083 6.70727 -0.773117
              }
            }
          }
        }
      }
    }
  }
}
MOTION
Frames: 12
Frame Time: 0.00208333
51.9687 84.3913 5.88257 -3.6518 -5.36929 -1.24825 0.797685 -1.22294 0.0334444 1.60194 1.56567 -0.0104707 1.60332 3.21037 -0.0437438 -9.0603 18.6999 2.99869 16.139 9.42686 -0.474006 -4.90604 -15.6315 -17.6209 24.9538 29.3339 65.8833 3.29267e-006 -7.31141e-007 1.38489e-006 -5.53584 57.7384 0.591874 8.0626e-006 1.76914e-006 -3 8.03008 -4.95138 0.697614 -14.498 -13.9218 11.5774 26.9402 25.6742 -98.3321 -9.82092e-007 3.18639e-006 6.9869e-006 3.81809 16.0788 1.57154 1.44746e-005 -1.24087e-006 3 -8.03009 -4.95136 -0.697635 -177.473 -0.562192 1.74665 180 7.01545e-015 178.914 176.77 6.19342 179.948 1.62963e-007 2.19174e-006 0.0567338 -18.0827 67.1533 18.8598 8.13649 25.2327 -3.48774 -173.907 1.84095 -3.02828 4.54188e-006 -4.6773e-006 -1.0866 -2.32547 -14.4117 0.13189 6.25173e-006 -5.92696e-006 -0.275655 20.9178 70.5124 -21.9087 -8.13649 25.2327 3.48774 
51.9585 84.3986 5.89007 -3.6433 -5.36882 -1.25681 0.796358 -1.22102 0.0334191 1.59942 1.57026 -0.0101687 1.60079 3.21496 -0.0438101 -9.08508 18.7261 3.0058 16.1223 9.393 -0.473531 -5.04476 -15.6566 -17.7078 24.8442 29.2986 66.0019 3.29267e-006 -7.31141e-007 1.38489e-006 -5.54436 57.8157 0.601421 8.0626e-006 1.76914e-006 -3 8.03008 -4.95138 0.697614 -14.2969 -14.015 11.7305 26.9358 25.6397 -98.3448 -9.82092e-007 3.18639e-006 6.9869e-006 3.81981 16.1863 1.56829 1.44746e-005 -1.24087e-006 3 -8.03009 -4.95136 -0.697635 -177.48 -0.563218 1.7497 180 7.01545e-015 178.914 176.77 6.19151 179.948 1.62963e-007 2.19174e-006 0.0567073 -18.0838 67.1547 18.8613 8.13649 25.2327 -3.48774 -173.913 1.83167 -3.02813 4.54188e-006 -4.6773e-006 -1.08663 -2.3303 -14.3987 0.131081 6.25173e-006 -5.92696e-006 -0.275561 20.9128 70.5079 -21.9041 -8.13649 25.2327 3.48774 
51.9582 84.3944 5.88571 -3.63507 -5.36752 -1.26496 0.795137 -1.21944 0.0334049 1.59702 1.57407 -0.00986474 1.59839 3.21877 -0.0438424 -9.11129 18.7534 3.01471 16.1075 9.3599 -0.472006 -5.18481 -15.6812 -17.7946 24.7352 29.2692 66.1168 3.29267e-006 -7.31141e-007 1.38489e-006 -5.55189 57.8841 0.609839 8.0626e-006 1.76914e-006 -3 8.03008 -4.95138 0.697614 -14.0976 -14.1064 11.8816 26.9286 25.6086 -98.3556 -9.82092e-007 3.18639e-006 6.9869e-006 3.82153 16.293 1.56504 1.44746e-005 -1.24087e-006 3 -8.03009 -4.95136 -0.697635 -177.486 -0.563469 1.7525 180 7.01545e-015 178.914 176.769 6.18945 179.948 1.62963e-007 2.19174e-006 0.0566809 -18.085 67.1562 18.863 8.13649 25.2327 -3.48774 -173.918 1.82367 -3.02798 4.54188e-006 -4.6773e-006 -1.08666 -2.33498 -14.3863 0.130281 6.25173e-006 -5.92696e-006 -0.275468 20.908 70.5035 -21.8997 -8.13649 25.2327 3.48774 
51.9461 84.3971 5.89382 -3.62718 -5.36534 -1.27252 0.794026 -1.21817 0.0334051 1.59475 1.57709 -0.00955243 1.59612 3.2218 -0.0438264 -9.13832 18.7805 3.02537 16.0943 9.32892 -0.469375 -5.32568 -15.7054 -17.8813 24.6245 29.2467 66.2291 3.29267e-006 -7.31141e-007 1.38489e-006 -5.55829 57.9425 0.616951 8.0626e-006 1.76914e-006 -3 8.03008 -4.95138 0.697614 -13.8996 -14.1954 12.0302 26.9174 25.5805 -98.3638 -9.82092e-007 3.18639e-006 6.9869e-006 3.82329 16.4011 1.56175 1.44746e-005 -1.24087e-006 3 -8.03009 -4.95136 -0.697635 -177.493 -0.56291 1.75501 180 7.01545e-015 178.914 176.769 6.18719 179.949 1.62963e-007 2.19174e-006 0.0566546 -18.0863 67.1579 18.8647 8.13649 25.2327 -3.48774 -173.922 1.81713 -3.02786 4.54188e-006 -4.6773e-006 -1.08669 -2.33948 -14.3745 0.129492 6.25173e-006 -5.92696e-006 -0.275374 20.9035 70.4994 -21.8956 -8.13649 25.2327 3.48774 
51.9489 84.3936 5.89244 -3.61971 -5.36224 -1.27934 0.793027 -1.2172 0.0334234 1.5926 1.57934 -0.00922546 1.59396 3.22405 -0.0437481 -9.16551 18.8066 3.03772 16.0824 9.30143 -0.465582 -5.46684 -15.7293 -17.9682 24.51 29.2318 66.3402 3.29267e-006 -7.31141e-007 1.38489e-006 -5.56338 57.9897 0.62258 8.0626e-006 1.76914e-006 -3 8.03008 -4.95138 0.697614 -13.7026 -14.2816 12.1754 26.9006 25.5556 -98.3687 -9.82092e-007 3.18639e-006 6.9869e-006 3.82512 16.5131 1.55837 1.44746e-005 -1.24087e-006 3 -8.03009 -4.95136 -0.697635 -177.498 -0.561507 1.75716 180 7.01545e-015 178.914 176.768 6.18472 179.949 1.62963e-007 2.19174e-006 0.0566284 -18.0877 67.1597 18.8666 8.13649 25.2327 -3.48774 -173.926 1.81222 -3.02779 4.54188e-006 -4.6773e-006 -1.08671 -2.34375 -14.3635 0.128714 6.25173e-006 -5.92696e-006 -0.27528 20.8993 70.4956 -21.8917 -8.13649 25.2327 3.48774 
51.9452 84.3953 5.89137 -3.61277 -5.35817 -1.28522 0.792142 -1.21652 0.0334632 1.59056 1.58081 -0.00887752 1.59191 3.22552 -0.0435933 -9.19225 18.8303 3.0517 16.0714 9.27878 -0.460574 -5.60776 -15.753 -18.0553 24.3893 29.2254 66.4516 3.29267e-006 -7.31141e-007 1.38489e-006 -5.56703 58.0246 0.626553 8.0626e-006 1.76914e-006 -3 8.03008 -4.95138 0.697614 -13.5063 -14.3647 12.3166 26.8771 25.5335 -98.3695 -9.82092e-007 3.18639e-006 6.9869e-006 3.82707 16.6312 1.55482 1.44746e-005 -1.24087e-006 3 -8.03009 -4.95136 -0.697635 -177.503 -0.559222 1.7589 180 7.01545e-015 178.914 176.768 6.182 179.949 1.62963e-007 2.19174e-006 0.0566024 -18.0892 67.1616 18.8686 8.13649 25.2327 -3.48774 -173.93 1.80911 -3.02781 4.54188e-006 -4.6773e-006 -1.08674 -2.34777 -14.3535 0.12795 6.25173e-006 -5.92696e-006 -0.275182 20.8954 70.4921 -21.8881 -8.13649 25.2327 3.48774 
51.9389 84.3951 5.89085 -3.60613 -5.35316 -1.29096 0.791465 -1.2162 0.033521 1.58876 1.58135 -0.00853013 1.59011 3.22606 -0.0433894 -9.22284 18.8554 3.06936 16.0642 9.25656 -0.453562 -5.75275 -15.7764 -18.1437 24.2668 29.2279 66.56 3.29267e-006 -7.31141e-007 1.38489e-006 -5.56931 58.0483 0.628957 8.0626e-006 1.76914e-006 -3 8.03008 -4.95138 0.697614 -13.3114 -14.4457 12.4557 26.8494 25.5156 -98.3678 -9.82092e-007 3.18639e-006 6.9869e-006 3.82905 16.7504 1.55122 1.44746e-005 -1.24087e-006 3 -8.03009 -4.95136 -0.697635 -177.508 -0.556099 1.76036 180 7.01545e-015 178.915 176.767 6.17904 179.949 1.62963e-007 2.19174e-006 0.0565765 -18.0908 67.1637 18.8707 8.13649 25.2327 -3.48774 -173.933 1.80727 -3.02792 4.54188e-006 -4.6773e-006 -1.08676 -2.35172 -14.344 0.127161 6.25173e-006 -5.92696e-006 -0.275086 20.8918 70.4888 -21.8847 -8.13649 25.2327 3.48774 
51.9331 84.3944 5.89638 -3.59956 -5.34729 -1.29732 0.791063 -1.21631 0.0335901 1.5873 1.58082 -0.00820642 1.58865 3.22553 -0.0431725 -9.26118 18.8857 3.09231 16.0633 9.22995 -0.444032 -5.90555 -15.7994 -18.234 24.1482 29.2386 66.6617 3.29267e-006 -7.31141e-007 1.38489e-006 -5.57045 58.0629 0.630046 8.0626e-006 1.76914e-006 -3 8.03008 -4.95138 0.697614 -13.1187 -14.5262 12.5952 26.8211 25.5026 -98.3654 -9.82092e-007 3.18639e-006 6.9869e-006 3.83094 16.8642 1.54768 1.44746e-005 -1.24087e-006 3 -8.03009 -4.95136 -0.697635 -177.513 -0.55221 1.7617 180 7.01545e-015 178.915 176.767 6.17592 179.949 1.62963e-007 2.19174e-006 0.0565507 -18.0925 67.166 18.873 8.13649 25.2327 -3.48774 -173.936 1.8061 -3.02806 4.54188e-006 -4.6773e-006 -1.08679 -2.35575 -14.3345 0.126315 6.25173e-006 -5.92696e-006 -0.274995 20.8881 70.4855 -21.8813 -8.13649 25.2327 3.48774 
51.9323 84.3948 5.89287 -3.59306 -5.34058 -1.30411 0.790897 -1.21684 0.0336694 1.58614 1.5793 -0.0079024 1.58749 3.22401 -0.0429421 -9.30602 18.9205 3.11976 16.0679 9.19973 -0.43234 -6.06484 -15.8219 -18.3258 24.0334 29.2567 66.7572 3.29267e-006 -7.31141e-007 1.38489e-006 -5.57051 58.0688 0.6299 8.0626e-006 1.76914e-006 -3 8.03008 -4.95138 0.697614 -12.9282 -14.606 12.7346 26.7921 25.4943 -98.3622 -9.82092e-007 3.18639e-006 6.9869e-006 3.83274 16.973 1.5442 1.44746e-005 -1.24087e-006 3 -8.03009 -4.95136 -0.697635 -177.517 -0.547564 1.76291 180 7.01545e-015 178.915 176.766 6.17259 179.95 1.62963e-007 2.19174e-006 0.0565251 -18.0944 67.1684 18.8755 8.13649 25.2327 -3.48774 -173.94 1.80567 -3.02824 4.54188e-006 -4.6773e-006 -1.08681 -2.35982 -14.325 0.125427 6.25173e-006 -5.92696e-006 -0.274909 20.8845 70.4822 -21.8778 -8.13649 25.2327 3.48774 
51.9295 84.3953 5.89612 -3.58665 -5.33305 -1.31116 0.790926 -1.21775 0.0337577 1.58523 1.57684 -0.0076141 1.58657 3.22155 -0.0426977 -9.35611 18.9593 3.15094 16.0771 9.16666 -0.418844 -6.22927 -15.844 -18.4185 23.9221 29.2814 66.8467 3.29267e-006 -7.31141e-007 1.38489e-006 -5.56955 58.0663 0.6286 8.0626e-006 1.76914e-006 -3 8.03008 -4.95138 0.697614 -12.7399 -14.6849 12.8737 26.7624 25.4902 -98.3583 -9.82092e-007 3.18639e-006 6.9869e-006 3.83445 17.0771 1.5408 1.44746e-005 -1.24087e-006 3 -8.03009 -4.95136 -0.697635 -177.522 -0.542169 1.76397 180 7.01545e-015 178.916 176.765 6.16911 179.95 1.62963e-007 2.19174e-006 0.0564996 -18.0963 67.1709 18.878 8.13649 25.2327 -3.48774 -173.943 1.80609 -3.02842 4.54188e-006 -4.6773e-006 -1.08684 -2.3639 -14.3156 0.124512 6.25173e-006 -5.92696e-006 -0.274829 20.881 70.479 -21.8744 -8.13649 25.2327 3.48774 
51.9275 84.3967 5.89544 -3.58035 -5.32473 -1.31826 0.791111 -1.21903 0.0338538 1.58451 1.57351 -0.00733756 1.58585 3.21822 -0.0424387 -9.41023 19.0013 3.18508 16.0898 9.13151 -0.4039 -6.39751 -15.8654 -18.5115 23.8143 29.3121 66.9306 3.29267e-006 -7.31141e-007 1.38489e-006 -5.56765 58.0559 0.626227 8.0626e-006 1.76914e-006 -3 8.03008 -4.95138 0.697614 -12.5538 -14.7628 13.0122 26.7319 25.49 -98.3535 -9.82092e-007 3.18639e-006 6.9869e-006 3.8361 17.1769 1.53747 1.44746e-005 -1.24087e-006 3 -8.03009 -4.95136 -0.697635 -177.526 -0.536035 1.76489 180 7.01545e-015 178.916 176.764 6.16548 179.95 1.62963e-007 2.19174e-006 0.0564742 -18.0983 67.1735 18.8807 8.13649 25.2327 -3.48774 -173.946 1.80744 -3.02858 4.54188e-006 -4.6773e-006 -1.08686 -2.36792 -14.3064 0.123583 6.25173e-006 -5.92696e-006 -0.274753 20.8775 70.4758 -21.871 -8.13649 25.2327 3.48774 
51.9224 84.3968 5.9022 -3.57419 -5.31563 -1.32525 0.791412 -1.22067 0.0339565 1.58395 1.56938 -0.0070688 1.58528 3.21409 -0.0421646 -9.4671 19.0461 3.22139 16.1053 9.09504 -0.387864 -6.56822 -15.8863 -18.6044 23.7098 29.3481 67.0094 3.29267e-006 -7.31141e-007 1.38489e-006 -5.56487 58.0379 0.622866 8.0626e-006 1.76914e-006 -3 8.03008 -4.95138 0.697614 -12.3701 -14.8396 13.1497 26.7005 25.4934 -98.3479 -9.82092e-007 3.18639e-006 6.9869e-006 3.83768 17.2726 1.53422 1.44746e-005 -1.24087e-006 3 -8.03009 -4.95136 -0.697635 -177.531 -0.529171 1.76563 180 7.01546e-015 178.917 176.763 6.16173 179.951 1.62963e-007 2.19174e-006 0.056449 -18.1003 67.1763 18.8835 8.13649 25.2327 -3.48774 -173.948 1.80981 -3.0287 4.54188e-006 -4.6773e-006 -1.08689 -2.37186 -14.2975 0.122655 6.25173e-006 -5.92696e-006 -0.274681 20.874 70.4727 -21.8676 -8.13649 25.2327 3.48774 
